<svg width="1715" height="155" viewBox="0 0 1715 155" fill="none" xmlns="http://www.w3.org/2000/svg">
<path d="M95.2099 10.2314L95.3566 9.10259H94.2183H70.0468H68.88L69.0586 10.2556C69.7325 14.6073 70.2407 19.9814 70.7506 27.2405C70.9071 30.6602 71.0635 34.3661 71.22 38.3585H15.9163C10.1663 38.3585 2.04172 37.8533 -2.84249 37.184L-3.97826 37.0284V38.1747V60.6663V61.7247L-2.92158 61.6647C3.03224 61.3267 10.3286 60.9899 16.427 60.9899H60.9418C47.0487 79.8178 19.7362 102.691 -12.4244 117.765L-13.6385 118.334L-12.7468 119.336L2.91355 136.923L3.4346 137.508L4.12742 137.142C30.1326 123.407 56.7641 101.027 72.1629 81.9172C72.4512 98.3247 72.4512 114.036 72.4512 124.759C72.4512 127.135 72.0307 128.622 71.2963 129.513C70.6003 130.358 69.457 130.861 67.4935 130.861C61.7607 130.861 52.6271 130.189 45.0279 128.847L43.7473 128.621L43.8576 129.917L45.7301 151.901L45.8027 152.754L46.6569 152.814C56.383 153.492 65.9386 153.831 76.345 153.831C82.9591 153.831 88.0497 152.232 91.4697 149.085C94.9063 145.923 96.4979 141.345 96.4097 135.735C96.1694 119.623 95.7596 100.814 95.3597 82.4635C95.2007 75.1669 95.0433 67.943 94.8988 60.9899H115.836C118.907 60.9899 122.807 61.1413 126.697 61.2925C128.606 61.3666 130.512 61.4407 132.317 61.4967L133.348 61.5287V60.4972V38.0056V36.8264L132.185 37.0191C128.157 37.6859 120.212 38.3585 114.645 38.3585H94.3643C94.3542 36.5061 94.3179 34.7169 94.2818 32.9959L94.2766 32.7462C94.2358 30.805 94.1969 28.9544 94.1969 27.1826C94.1969 21.9733 94.5358 15.4222 95.2099 10.2314ZM163.751 66.265L162.669 66.1753V67.2616V93.8117V94.8955L163.749 94.8085C170.009 94.3042 181.384 93.9662 191.074 93.9662H282.483C287.532 93.9662 293.321 94.304 297.742 94.562C299.561 94.6682 301.149 94.7608 302.358 94.8109L303.399 94.854V93.8117V67.2616V66.1822L302.323 66.2645C301.797 66.3047 301.229 66.3495 300.623 66.3974C296.111 66.7537 289.495 67.2762 282.483 67.2762H191.074C182.246 67.2762 169.848 66.7697 163.751 66.265ZM368.988 152.851L368.815 154H369.977H396.532H397.635L397.527 152.902C396.847 145.973 396 134.177 396 129.325V82.8653C414.252 89.1299 438.937 98.6702 455.988 107.551L456.955 108.055L457.373 107.048L467.076 83.7108L467.438 82.8398L466.589 82.4275C451.027 74.8652 418.807 63.0116 396 56.364V32.0868C396 25.2201 396.843 17.836 397.525 11.908L397.653 10.7937H396.532H369.977H368.756L368.997 11.9911C370.17 17.8187 370.679 26.2007 370.679 32.0868V129.325C370.679 136.045 370.001 146.142 368.988 152.851ZM622.051 10.0475L621.593 9.37415L620.841 9.6863L607.393 15.2669L606.232 15.7491L606.963 16.7723C611.151 22.6278 615.785 31.6377 619.297 38.4683C619.595 39.0473 619.885 39.6106 620.165 40.155L620.594 40.987L621.453 40.6138L635.07 34.695L636.051 34.2687L635.56 33.3187C632.319 27.048 626.34 16.3533 622.051 10.0475ZM642.134 2.4328L641.675 1.76608L640.927 2.07637L627.48 7.65698L626.302 8.14547L627.057 9.17259C631.604 15.3636 637.192 25.2834 640.583 32.1893L640.999 33.0373L641.87 32.6698L655.487 26.9201L656.484 26.4995L655.986 25.5392C652.905 19.5859 646.585 8.89586 642.134 2.4328ZM520.207 92.5912L520.202 92.6037C514.448 107.4 504.451 125.58 493.788 139.367L492.991 140.398L494.193 140.901L518.024 150.878L518.762 151.187L519.225 150.536C528.303 137.773 538.385 118.416 544.54 101.941C550.521 86.1511 556.661 62.7627 559.052 50.8862L559.054 50.8775L559.056 50.8689C559.732 47.1746 561.596 38.9301 563.112 34.0761L563.442 33.0195L562.357 32.7981L537.505 27.7248L536.415 27.5023L536.31 28.6099C534.278 49.9752 527.837 73.7251 520.207 92.5912ZM604.284 89.7572L604.286 89.7642C611.077 107.979 617.194 129.245 621.953 149.341L622.203 150.394L623.233 150.062L648.426 141.945L649.346 141.649L649.081 140.719C644.307 123.95 635.275 96.8624 629.305 81.6096L629.304 81.6072C622.826 65.1786 611.064 39.0985 604.062 26.0338L603.668 25.2992L602.875 25.5541L580.236 32.8258L579.075 33.1986L579.667 34.264C586.784 47.0579 597.828 72.035 604.284 89.7572ZM668.979 78.8067L667.774 79.1143L668.334 80.2252L679.057 101.533L679.431 102.276L680.23 102.044C700.661 96.103 721.725 87.2783 739.039 78.3752V130.847C739.039 138.282 738.527 148.864 737.861 152.835L737.666 154H738.847H765.742H767.063L766.705 152.729C766.143 150.734 765.762 147.158 765.528 143.071C765.295 139.016 765.21 134.555 765.21 130.847V63.0661C781.621 52.2645 797.833 39.1581 810.7 26.5438L811.441 25.8175L810.688 25.1039L792.304 7.68559L791.528 6.9503L790.846 7.77365C779.857 21.0427 760.538 37.8818 743.092 48.6517C724.288 60.0959 699.359 71.0507 668.979 78.8067Z" stroke="url(#paint0_linear_4_42)" stroke-width="2"/>
<path d="M997.21 10.2314L997.357 9.10259H996.218H972.047H970.88L971.059 10.2556C971.732 14.6073 972.241 19.9814 972.751 27.2405C972.907 30.6602 973.064 34.3661 973.22 38.3585H917.916C912.166 38.3585 904.042 37.8533 899.158 37.184L898.022 37.0284V38.1747V60.6663V61.7247L899.078 61.6647C905.032 61.3267 912.329 60.9899 918.427 60.9899H962.942C949.049 79.8178 921.736 102.691 889.576 117.765L888.361 118.334L889.253 119.336L904.914 136.923L905.435 137.508L906.127 137.142C932.133 123.407 958.764 101.027 974.163 81.9172C974.451 98.3247 974.451 114.036 974.451 124.759C974.451 127.135 974.031 128.622 973.296 129.513C972.6 130.358 971.457 130.861 969.493 130.861C963.761 130.861 954.627 130.189 947.028 128.847L945.747 128.621L945.858 129.917L947.73 151.901L947.803 152.754L948.657 152.814C958.383 153.492 967.939 153.831 978.345 153.831C984.959 153.831 990.05 152.232 993.47 149.085C996.906 145.923 998.498 141.345 998.41 135.735C998.169 119.623 997.76 100.814 997.36 82.4635C997.201 75.1669 997.043 67.943 996.899 60.9899H1017.84C1020.91 60.9899 1024.81 61.1413 1028.7 61.2925C1030.61 61.3666 1032.51 61.4407 1034.32 61.4967L1035.35 61.5287V60.4972V38.0056V36.8264L1034.18 37.0191C1030.16 37.6859 1022.21 38.3585 1016.64 38.3585H996.364C996.354 36.5061 996.318 34.7169 996.282 32.9959L996.277 32.7462C996.236 30.805 996.197 28.9544 996.197 27.1826C996.197 21.9733 996.536 15.4222 997.21 10.2314ZM1065.75 66.265L1064.67 66.1753V67.2616V93.8117V94.8955L1065.75 94.8085C1072.01 94.3042 1083.38 93.9662 1093.07 93.9662H1184.48C1189.53 93.9662 1195.32 94.304 1199.74 94.562C1201.56 94.6682 1203.15 94.7608 1204.36 94.8109L1205.4 94.854V93.8117V67.2616V66.1822L1204.32 66.2645C1203.8 66.3047 1203.23 66.3495 1202.62 66.3974C1198.11 66.7537 1191.49 67.2762 1184.48 67.2762H1093.07C1084.25 67.2762 1071.85 66.7697 1065.75 66.265ZM1270.99 152.851L1270.81 154H1271.98H1298.53H1299.63L1299.53 152.902C1298.85 145.973 1298 134.177 1298 129.325V82.8653C1316.25 89.1299 1340.94 98.6702 1357.99 107.551L1358.95 108.055L1359.37 107.048L1369.08 83.7108L1369.44 82.8398L1368.59 82.4275C1353.03 74.8652 1320.81 63.0116 1298 56.364V32.0868C1298 25.2201 1298.84 17.836 1299.53 11.908L1299.65 10.7937H1298.53H1271.98H1270.76L1271 11.9911C1272.17 17.8187 1272.68 26.2007 1272.68 32.0868V129.325C1272.68 136.045 1272 146.142 1270.99 152.851ZM1524.05 10.0475L1523.59 9.37415L1522.84 9.6863L1509.39 15.2669L1508.23 15.7491L1508.96 16.7723C1513.15 22.6278 1517.78 31.6377 1521.3 38.4683C1521.59 39.0473 1521.88 39.6106 1522.17 40.155L1522.59 40.987L1523.45 40.6138L1537.07 34.695L1538.05 34.2687L1537.56 33.3187C1534.32 27.048 1528.34 16.3533 1524.05 10.0475ZM1544.13 2.4328L1543.67 1.76608L1542.93 2.07637L1529.48 7.65698L1528.3 8.14547L1529.06 9.17259C1533.6 15.3636 1539.19 25.2834 1542.58 32.1893L1543 33.0373L1543.87 32.6698L1557.49 26.9201L1558.48 26.4995L1557.99 25.5392C1554.9 19.5859 1548.59 8.89586 1544.13 2.4328ZM1422.21 92.5912L1422.2 92.6037C1416.45 107.4 1406.45 125.58 1395.79 139.367L1394.99 140.398L1396.19 140.901L1420.02 150.878L1420.76 151.187L1421.23 150.536C1430.3 137.773 1440.39 118.416 1446.54 101.941C1452.52 86.1511 1458.66 62.7627 1461.05 50.8862L1461.05 50.8775L1461.06 50.8689C1461.73 47.1746 1463.6 38.9301 1465.11 34.0761L1465.44 33.0195L1464.36 32.7981L1439.51 27.7248L1438.41 27.5023L1438.31 28.6099C1436.28 49.9752 1429.84 73.7251 1422.21 92.5912ZM1506.28 89.7572L1506.29 89.7642C1513.08 107.979 1519.19 129.245 1523.95 149.341L1524.2 150.394L1525.23 150.062L1550.43 141.945L1551.35 141.649L1551.08 140.719C1546.31 123.95 1537.28 96.8624 1531.3 81.6096L1531.3 81.6072C1524.83 65.1786 1513.06 39.0985 1506.06 26.0338L1505.67 25.2992L1504.88 25.5541L1482.24 32.8258L1481.07 33.1986L1481.67 34.264C1488.78 47.0579 1499.83 72.035 1506.28 89.7572ZM1570.98 78.8067L1569.77 79.1143L1570.33 80.2252L1581.06 101.533L1581.43 102.276L1582.23 102.044C1602.66 96.103 1623.73 87.2783 1641.04 78.3752V130.847C1641.04 138.282 1640.53 148.864 1639.86 152.835L1639.67 154H1640.85H1667.74H1669.06L1668.7 152.729C1668.14 150.734 1667.76 147.158 1667.53 143.071C1667.3 139.016 1667.21 134.555 1667.21 130.847V63.0661C1683.62 52.2645 1699.83 39.1581 1712.7 26.5438L1713.44 25.8175L1712.69 25.1039L1694.3 7.68559L1693.53 6.9503L1692.85 7.77365C1681.86 21.0427 1662.54 37.8818 1645.09 48.6517C1626.29 60.0959 1601.36 71.0507 1570.98 78.8067Z" stroke="url(#paint1_linear_4_42)" stroke-width="2"/>
<defs>
<linearGradient id="paint0_linear_4_42" x1="810" y1="153" x2="550.497" y2="-311.352" gradientUnits="userSpaceOnUse">
<stop stop-color="#9A6A44"/>
<stop offset="0.28125" stop-color="#FFF4BC"/>
<stop offset="0.53125" stop-color="#AB6516"/>
<stop offset="0.760417" stop-color="#9C3E09"/>
<stop offset="1" stop-color="#E7D4A6"/>
</linearGradient>
<linearGradient id="paint1_linear_4_42" x1="1712" y1="153" x2="1452.5" y2="-311.352" gradientUnits="userSpaceOnUse">
<stop stop-color="#9A6A44"/>
<stop offset="0.28125" stop-color="#FFF4BC"/>
<stop offset="0.53125" stop-color="#AB6516"/>
<stop offset="0.760417" stop-color="#9C3E09"/>
<stop offset="1" stop-color="#E7D4A6"/>
</linearGradient>
</defs>
</svg>
